<?xml version="1.0" standalone="no"?>
<!DOCTYPE svg PUBLIC "-//W3C//DTD SVG 20010904//EN"
 "http://www.w3.org/TR/2001/REC-SVG-20010904/DTD/svg10.dtd">
<svg version="1.0" xmlns="http://www.w3.org/2000/svg"
 width="255.000000pt" height="198.000000pt" viewBox="0 0 255.000000 198.000000"
 preserveAspectRatio="xMidYMid meet">

<g transform="translate(0.000000,198.000000) scale(0.100000,-0.100000)"
fill="#000000" stroke="none">
<path d="M916 1358 c-9 -55 -36 -363 -36 -413 0 -85 74 -129 150 -90 37 19 48
55 56 183 4 56 10 105 14 107 14 9 96 -53 130 -98 19 -25 40 -46 45 -46 6 0
25 20 43 44 34 45 118 108 132 100 5 -3 11 -53 15 -112 4 -60 14 -122 22 -139
28 -61 106 -73 155 -23 l31 30 -7 97 c-10 154 -32 382 -38 387 -2 3 -54 -4
-114 -15 -75 -13 -129 -29 -174 -52 l-65 -33 -65 33 c-45 22 -99 39 -174 52
-60 11 -111 20 -112 20 -2 0 -6 -15 -8 -32z m167 -57 c42 -11 90 -27 108 -36
l32 -17 -31 -30 -30 -31 -48 17 c-26 9 -53 16 -59 16 -8 0 -16 -49 -24 -147
-7 -82 -18 -154 -23 -160 -6 -7 -21 -13 -33 -13 -43 0 -46 15 -30 191 21 222
22 229 44 229 10 0 52 -9 94 -19z m501 -13 c17 -104 34 -352 26 -368 -15 -27
-41 -33 -61 -13 -14 14 -20 49 -30 166 -9 108 -15 147 -25 147 -36 0 -128 -46
-172 -85 l-49 -44 -28 29 -29 30 32 33 c49 50 130 95 212 116 108 28 118 28
124 -11z"/>
<path d="M1317 760 c-33 -26 -36 -67 -7 -98 59 -63 158 21 103 86 -27 32 -64
37 -96 12z m73 -25 c7 -9 10 -25 6 -40 -6 -22 -11 -26 -39 -23 -25 2 -33 8
-35 26 -7 44 41 70 68 37z"/>
<path d="M832 708 c4 -77 28 -95 28 -21 l0 48 19 -25 c19 -23 20 -24 39 -7 27
24 32 22 32 -17 0 -36 16 -58 22 -30 6 33 -4 114 -15 114 -6 0 -21 -10 -34
-22 l-23 -22 -16 22 c-8 12 -24 22 -35 22 -18 0 -20 -6 -17 -62z"/>
<path d="M1002 708 l3 -63 48 -3 c37 -2 47 0 47 12 0 12 -10 16 -35 16 -24 0
-35 5 -35 15 0 10 10 15 30 15 37 0 40 18 3 22 -42 5 -41 28 1 28 20 0 36 5
36 10 0 6 -23 10 -50 10 l-51 0 3 -62z"/>
<path d="M1130 705 c0 -36 4 -65 9 -65 12 0 22 45 15 64 -8 21 5 20 29 -1 18
-17 19 -17 32 0 19 26 25 21 25 -24 0 -28 4 -39 13 -37 7 3 13 28 15 66 3 56
1 62 -17 62 -11 0 -27 -10 -36 -22 l-16 -23 -19 23 c-35 42 -50 29 -50 -43z"/>
<path d="M1452 708 c4 -73 28 -96 28 -26 l0 43 36 -43 c20 -23 40 -40 45 -36
5 3 9 32 9 65 0 46 -3 59 -15 59 -11 0 -15 -11 -15 -37 l-1 -38 -32 38 c-47
54 -59 49 -55 -25z"/>
<path d="M1616 714 c-14 -31 -26 -60 -26 -65 0 -14 16 -11 30 6 7 8 26 15 42
15 16 0 31 -6 34 -15 4 -8 13 -15 21 -15 8 0 13 4 11 8 -1 4 -14 33 -27 65
-32 75 -51 75 -85 1z m54 -5 c0 -10 -7 -19 -15 -19 -16 0 -19 9 -9 34 8 20 24
11 24 -15z"/>
</g>
</svg>
